<?xml version="1.0" encoding="UTF-8" standalone="no"?><svg xmlns="http://www.w3.org/2000/svg" xmlns:xlink="http://www.w3.org/1999/xlink" fill="#000000" height="517.5" preserveAspectRatio="xMidYMid meet" version="1" viewBox="-4.2 0.0 325.5 517.5" width="325.5" zoomAndPan="magnify"><g id="change1_1"><path d="M280.153,497.391c-22.761,4.138-37.44,3.321-54.131,8.002c-18.169,5.095-45.54,12.121-60.014-6.59 c-2.467-3.188-4.639-13.038-6.546-27.179c-5.961-0.621-14.141-1.461-25.344-2.593c-13.107-1.324-24.575,0.778-33.79,3.922 c2.975-16.163,4.842-44.167,4.842-44.167S136.942,337,146.827,305.934c0.645-2.026,1.346-4.204,2.091-6.502 c-1.234-38.592-1.738-67.28-1.738-67.28s-35.634,65.118-35.656,65.545c0,0-10.355,10.355-16.945,45.658 c-6.669,35.729-8.943,83.549-8.943,83.549s-17.887,32.243-20.711,47.776c-0.787,4.326-1.046,8.271-0.897,11.811 c-24.689-1.414-68.189-10.963-63.707-20.989c4.472-10.002,26.595-14.239,26.595-14.239c17.608-28.928,59.115-117.228,75.296-148.827 c1.986-3.878,3.591-6.903,4.723-8.858c7.13-12.316,6.001-58.249,12.003-106.614c2.902-23.389,11.704-46.878,19.857-64.652 c0.814-1.775,1.619-3.484,2.414-5.139c3.136-6.53,6.063-12.076,8.394-16.292c1.085-1.962,2.035-3.629,2.818-4.976 c0.235-0.405,0.454-0.779,0.658-1.125c1.066-1.808,1.694-2.812,1.694-2.812c0.023-0.295,0.032-0.579,0.048-0.869 c0.083-1.49,0.084-2.919,0-4.29c-0.169-2.766-0.639-5.329-1.255-7.838c-0.003-0.013-0.006-0.026-0.01-0.04 c-0.193-0.785-0.4-1.565-0.617-2.345c-0.005-0.016-0.009-0.032-0.013-0.048c-0.218-0.783-0.445-1.566-0.676-2.353 c-0.003-0.009-0.005-0.018-0.008-0.027c-0.107-0.363-0.216-0.731-0.324-1.096c-0.12-0.405-0.241-0.812-0.361-1.221 c-0.008-0.027-0.016-0.053-0.023-0.079c-0.594-2.02-1.171-4.129-1.72-6.244c-0.171-0.661-0.34-1.321-0.505-1.98 c-0.057-0.228-0.113-0.455-0.169-0.682c-0.005-0.019-0.009-0.037-0.014-0.056c-0.163-0.657-0.322-1.311-0.477-1.96 c-0.007-0.031-0.015-0.061-0.022-0.092c-0.092-0.384-0.182-0.766-0.271-1.146c-0.271-1.156-0.528-2.287-0.769-3.38 c-0.085-0.386-0.168-0.767-0.249-1.142c-0.008-0.036-0.016-0.073-0.024-0.109c-0.123-0.572-0.241-1.131-0.354-1.675 c-0.009-0.042-0.017-0.082-0.026-0.124c-0.231-1.115-0.439-2.164-0.621-3.126c-0.002-0.01-0.004-0.02-0.006-0.03 c-0.086-0.458-0.166-0.893-0.24-1.308c-0.01-0.055-0.02-0.109-0.029-0.163c-0.011-0.061-0.022-0.125-0.033-0.185 c-0.057-0.329-0.11-0.639-0.158-0.936c-0.008-0.048-0.015-0.094-0.023-0.142c-0.057-0.355-0.11-0.691-0.153-0.994 c-0.001-0.005-0.001-0.01-0.002-0.015c-0.043-0.299-0.077-0.566-0.106-0.81c-0.004-0.031-0.008-0.065-0.011-0.095 c-0.026-0.228-0.044-0.425-0.056-0.598c-0.002-0.032-0.004-0.064-0.006-0.094c-0.009-0.161-0.012-0.296-0.007-0.399 c0.001-0.016,0.003-0.027,0.004-0.042c0.008-0.097,0.022-0.171,0.046-0.198l-1.532-0.856l-0.077-0.043l-4.22-2.357l-18.84-10.524 c1.234-6.657,2.503-11.653,3.723-13.449c8.807-12.969,18.881-7.721,36.009-12.003c1.298-0.324,2.128-1.783,2.63-3.905 c3.369,0.479,8.081,0.973,12.667,0.845c4.054-0.113,8.042-0.926,11.112-1.743c0.327,1.009,0.717,1.832,1.185,2.331 c1.59,1.695,4.714,1.983,8.495,2.042c2.411,0.037,5.086-0.014,7.809,0.14c7.231,0.408,14.768,2.296,18.395,11.364 c0.591,1.478,1.364,3.764,2.283,6.625l-9.783,12.199l-1.386,1.728c0,0,0,0,0,0c0.197,0.333,0.381,0.685,0.559,1.045 c0.049,0.099,0.097,0.198,0.145,0.299c0.161,0.342,0.316,0.693,0.46,1.058c0.053,0.134,0.1,0.276,0.151,0.413 c0.213,0.579,0.401,1.189,0.57,1.824c0.072,0.27,0.149,0.532,0.211,0.812c0.061,0.273,0.108,0.562,0.161,0.844 c0.067,0.359,0.131,0.721,0.184,1.095c0.038,0.269,0.071,0.545,0.102,0.823c0.049,0.439,0.086,0.891,0.115,1.35 c0.015,0.239,0.034,0.475,0.044,0.72c0.029,0.718,0.041,1.453,0.021,2.218v0c0,0,0,0.001,0,0.001 c-0.012,0.454-0.048,0.955-0.098,1.483c0,0.003,0,0.005-0.001,0.008c-0.005,0.056-0.009,0.11-0.015,0.167 c-0.012,0.119-0.033,0.257-0.047,0.381c-0.033,0.295-0.071,0.598-0.113,0.913c-0.011,0.084-0.018,0.159-0.03,0.244 c-0.004,0.031-0.007,0.058-0.011,0.089c-0.013,0.093-0.026,0.185-0.04,0.279c-0.016,0.107-0.038,0.227-0.054,0.336 c-0.061,0.396-0.126,0.801-0.197,1.222c-0.013,0.078-0.023,0.148-0.037,0.227c-0.019,0.11-0.039,0.222-0.059,0.334 c-0.012,0.066-0.026,0.139-0.038,0.206c-0.08,0.45-0.167,0.915-0.257,1.388c-0.024,0.126-0.044,0.242-0.068,0.369 c-0.02,0.103-0.041,0.209-0.061,0.313c-0.004,0.019-0.008,0.039-0.011,0.057c-0.114,0.584-0.235,1.187-0.359,1.8 c-0.022,0.106-0.04,0.204-0.062,0.311c-0.008,0.04-0.017,0.082-0.025,0.124c-0.006,0.028-0.012,0.056-0.017,0.083 c-0.005,0.023-0.01,0.048-0.015,0.071c-0.226,1.105-0.466,2.256-0.712,3.437c-0.098,0.469-0.194,0.93-0.293,1.409 c-0.016,0.076-0.031,0.152-0.047,0.228c-0.172,0.832-0.346,1.68-0.519,2.537c-0.026,0.128-0.052,0.255-0.077,0.384 c-0.039,0.195-0.077,0.396-0.116,0.593c-0.13,0.654-0.26,1.309-0.387,1.973c-0.022,0.115-0.044,0.231-0.066,0.347 c-0.079,0.414-0.153,0.833-0.23,1.25c-0.089,0.48-0.179,0.957-0.265,1.441c-0.011,0.061-0.021,0.122-0.032,0.183 c-0.065,0.37-0.123,0.743-0.186,1.115c-0.094,0.559-0.192,1.116-0.28,1.676c-0.004,0.025-0.008,0.051-0.012,0.076 c-0.143,0.915-0.275,1.83-0.399,2.744c-0.015,0.109-0.03,0.218-0.045,0.327c-0.059,0.447-0.106,0.89-0.158,1.335 c-0.051,0.431-0.108,0.863-0.153,1.291c-0.014,0.136-0.029,0.272-0.043,0.408c-0.006,0.056-0.009,0.111-0.014,0.167 c-0.08,0.806-0.151,1.608-0.206,2.402c-0.009,0.132-0.017,0.263-0.026,0.394c-0.056,0.861-0.097,1.716-0.119,2.557 c-0.001,0.057-0.002,0.114-0.003,0.17c0,0.034-0.001,0.068-0.002,0.103c-0.018,0.882-0.021,1.753,0.004,2.607c0,0,0,0,0,0 c0.004,0.149,0.017,0.291,0.024,0.438l0.067-0.001c0.158,0.527,0.331,1.068,0.513,1.616c0.54,1.631,1.179,3.358,1.9,5.208 c0.064,0.163,0.13,0.33,0.195,0.495c0.727,1.852,1.529,3.826,2.386,5.944c0.227,0.562,0.458,1.132,0.692,1.716 c0.21,0.521,0.422,1.05,0.636,1.588c3.901,9.784,8.591,22.471,12.298,39.932c10.944,51.542-5.933,131.207-1.765,160.98 c2.471,17.651,56.249,150.86,56.249,150.86s21.652,6.119,32.008,17.887C321.31,483.27,300.864,493.626,280.153,497.391z" fill="#4c080d"/></g><g id="change2_1"><path d="M172.864,72.767c0,0,0.812,4.874-1.625,5.687c-2.437,0.812-2.708-6.228-2.708-6.228s-6.228,5.416-7.447,1.354 c-1.219-4.062,4.197-5.281,4.197-5.281s-4.197-2.708-1.76-5.551c2.437-2.843,5.145,3.656,5.145,3.656s0.069-7.908,4.739-4.739 c3.791,2.573-0.542,6.228-0.542,6.228s5.755-0.459,5.281,3.656C177.738,75.068,172.864,72.767,172.864,72.767z M186.674,59.768 c0,0-2.708-3.25-4.739-1.625c-2.031,1.625,0.135,4.604,0.135,4.604s-4.3,0.978-3.114,4.874c0.948,3.114,4.604,2.708,4.604,2.708 s-0.677,4.739,2.573,5.145c4.217,0.527,3.927-4.197,3.927-4.197s2.708,3.25,5.145,1.625c2.437-1.625-0.135-5.145-0.135-5.145 s3.656-0.542,3.25-3.927c-0.484-4.033-5.822-2.031-5.822-2.031s2.843-4.468-1.354-5.822 C186.945,54.623,186.674,59.768,186.674,59.768z M187.148,97.748c1.219-3.25-8.124-5.281-8.124-5.281s11.373-0.406,9.749-5.281 s-11.78,2.437-11.78,2.437s5.281-12.186,0-12.998c-5.281-0.812-3.25,13.404-3.25,13.404s-5.687-14.623-8.124-11.374 c-2.437,3.25,3.25,9.343,3.25,9.343s-9.749-1.219-9.749,2.031c0,3.25,9.343,3.25,9.343,3.25s-5.281,9.749-1.625,10.967 c3.656,1.219,6.093-8.53,6.093-8.53s2.843,10.155,5.281,9.343c2.437-0.812-1.219-8.53-1.219-8.53S185.93,100.997,187.148,97.748z M173.473,110.881c0,0,4.333-3.656,0.542-6.228c-4.669-3.169-4.739,4.739-4.739,4.739s-2.708-6.499-5.145-3.656 c-2.437,2.843,1.76,5.551,1.76,5.551s-5.416,1.219-4.197,5.281c1.219,4.062,7.447-1.354,7.447-1.354s0.271,7.041,2.708,6.228 c2.437-0.812,1.625-5.687,1.625-5.687s4.874,2.302,5.281-1.219C179.228,110.422,173.473,110.881,173.473,110.881z M193.106,104.788 c0,0,2.843-4.468-1.354-5.822c-4.197-1.354-4.468,3.791-4.468,3.791s-2.708-3.25-4.739-1.625c-2.031,1.625,0.135,4.604,0.135,4.604 s-4.3,0.978-3.114,4.874c0.948,3.114,4.604,2.708,4.604,2.708s-0.677,4.739,2.573,5.145c4.217,0.527,3.927-4.197,3.927-4.197 s2.708,3.25,5.145,1.625c2.437-1.625-0.135-5.145-0.135-5.145s3.656-0.542,3.25-3.927 C198.444,102.786,193.106,104.788,193.106,104.788z M210.721,87.781c0.001-0.057,0.001-0.113,0.003-0.17 c0.022-0.842,0.063-1.696,0.119-2.557c0.008-0.131,0.016-0.263,0.026-0.394c0.056-0.794,0.126-1.596,0.206-2.402 c-3.103,0.363-7.152,2.647-7.152,2.647s5.408-9.053,3.141-10.262c-2.267-1.208-5.348,6.756-5.348,6.756s-2.911-9.558-6.107-8.205 c-3.196,1.353,1.762,9.528,1.762,9.528s-8.124-7.97-10.541-3.436c-2.417,4.534,9.877,6.866,9.877,6.866s-12.474,4.559-9.428,8.948 c3.046,4.389,11.96-6.871,11.96-6.871s-6.692,14.191-2.657,13.722c4.035-0.469,4.539-8.788,4.539-8.788s5.827,7.91,8.184,5.673 s-4.074-9.013-4.074-9.013S208.16,89.033,210.721,87.781z M212.661,71.494c0.077-0.416,0.151-0.836,0.23-1.25 c0.022-0.116,0.044-0.231,0.066-0.347c0.127-0.664,0.257-1.319,0.387-1.973C212.082,69.026,212.162,70.352,212.661,71.494z M211.488,78.728c0.123-0.914,0.255-1.829,0.399-2.744c0.004-0.025,0.008-0.051,0.012-0.076c0.088-0.56,0.185-1.118,0.28-1.676 c-1.438,0.341-2.925,1.272-2.52,3.734c0.25,1.52,0.868,2.205,1.626,2.425c0.053-0.445,0.099-0.889,0.158-1.335 C211.457,78.946,211.473,78.837,211.488,78.728z M210.596,103.117c1.443,3.009,4.035,1.827,5.212,1.073 c-0.857-2.118-1.659-4.091-2.386-5.944C212.191,98.609,209.045,99.884,210.596,103.117z M217.137,107.493 c-0.215-0.538-0.427-1.067-0.636-1.588C216.604,106.471,216.798,107.045,217.137,107.493z M213.227,97.751 c-0.721-1.851-1.36-3.577-1.9-5.208C209.386,94.936,211.943,96.949,213.227,97.751z M218.629,20.638 c-1.625-4.874-11.78,2.437-11.78,2.437s5.281-12.186,0-12.998c-5.281-0.812-3.25,13.404-3.25,13.404s-5.687-14.623-8.124-11.374 c-2.437,3.25,3.25,9.343,3.25,9.343s-7.561-0.942-9.36,1.056c-0.075-0.022-0.136-0.051-0.218-0.069 c-4.05-0.871-4.15,4.902-4.15,4.902s-3.219-4.666-6.147-1.142c-3.606,4.341,4.258,5.175,4.258,5.175s-6.731,2.066-4.136,4.767 c2.594,2.701,5.696-1.215,5.696-1.215s0.689,5.508,4.85,4.689c4.161-0.82-0.627-7.543-0.627-7.543s7.034,0.412,6.461-2.093 c-0.573-2.504-5.503-2.167-5.503-2.167s0.649-1.094,0.922-2.302c2.711,1.215,7.548,1.222,7.548,1.222s-5.281,9.749-1.625,10.967 c3.656,1.219,6.093-8.53,6.093-8.53s2.843,10.155,5.281,9.343c2.437-0.812-1.219-8.53-1.219-8.53s8.936,4.468,10.155,1.219 s-8.124-5.281-8.124-5.281S220.253,25.513,218.629,20.638z M191.549,50.02c1.219,4.062,7.447-1.354,7.447-1.354 s0.271,7.041,2.708,6.228c2.437-0.812,1.625-5.687,1.625-5.687s4.874,2.302,5.281-1.219c0.475-4.115-5.281-3.656-5.281-3.656 s4.333-3.656,0.542-6.228c-4.669-3.169-4.739,4.739-4.739,4.739s-2.708-6.499-5.145-3.656c-2.437,2.843,1.76,5.551,1.76,5.551 S190.33,45.958,191.549,50.02z M216.612,50.59c0.006-0.057,0.01-0.111,0.015-0.167c0-0.003,0-0.005,0.001-0.008 c0.05-0.528,0.086-1.029,0.098-1.483c0,0,0-0.001,0-0.001v0c0.02-0.766,0.008-1.5-0.021-2.218c-0.01-0.245-0.028-0.481-0.044-0.72 c-0.029-0.46-0.066-0.911-0.115-1.35c-0.031-0.277-0.063-0.553-0.102-0.823c-0.053-0.374-0.117-0.736-0.184-1.095 c-0.053-0.282-0.1-0.571-0.161-0.844c-0.063-0.28-0.14-0.543-0.211-0.812c-0.168-0.635-0.356-1.245-0.57-1.824 c-0.051-0.137-0.098-0.279-0.151-0.413c-0.144-0.365-0.299-0.716-0.46-1.058c-0.048-0.101-0.096-0.2-0.145-0.299 c-0.179-0.36-0.363-0.712-0.559-1.045c0,0,0,0,0,0l1.386-1.728c-0.908-0.558-2.023-0.89-2.989-0.117 c-2.031,1.625,0.135,4.604,0.135,4.604s-4.3,0.978-3.114,4.874c0.948,3.114,4.604,2.708,4.604,2.708s-0.647,4.578,2.426,5.113 c0.043-0.314,0.08-0.617,0.113-0.913C216.579,50.847,216.6,50.709,216.612,50.59z M207.816,53.657 c-3.74-0.198-3.327,4.78-3.327,4.78s-4.268-3.55-6.745-0.107c-2.476,3.443,5.614,5.077,5.614,5.077s-5.415,4.508-3.285,5.944 c2.13,1.436,5.498-2.18,5.498-2.18s1.148,5.267,4.186,3.442c3.551-2.133-0.322-6.414-0.322-6.414s3.956,0.849,5.01-1.658 c0.068-0.326,0.138-0.662,0.205-0.983c0.015-0.071,0.028-0.137,0.043-0.207c0.008-0.169,0.021-0.333,0.009-0.521 c-0.336-5.633-6.646-0.866-6.646-0.866S211.555,53.855,207.816,53.657z M178.248,12.808c0,0-3.496,2.381-2.076,4.56 c1.421,2.179,4.595,0.311,4.595,0.311s0.557,4.375,4.55,3.571c3.191-0.642,3.141-4.32,3.141-4.32s4.651,1.132,5.37-2.063 c0.933-4.146-3.798-4.314-3.798-4.314s3.496-2.381,2.115-4.964s-5.134-0.363-5.134-0.363s-0.185-3.691-3.594-3.614 c-4.061,0.091-2.585,5.598-2.585,5.598s-4.172-3.262-5.926,0.784C173.153,12.04,178.248,12.808,178.248,12.808z M158.769,59.486 c0,0,6.945-1.19,5.82-3.5c-1.125-2.31-5.851-0.866-5.851-0.866s1.644-5.134-1.9-5.075c-4.142,0.068-2.933,5.714-2.933,5.714 s-4.192-3.817-6.246,0.279c-0.033,0.066-0.045,0.119-0.075,0.183c0.241,1.093,0.498,2.224,0.769,3.38 c1.703,0.869,4.624,0.515,4.624,0.515s-2.921,1.699-3.671,3.422c0.165,0.659,0.334,1.32,0.505,1.98 c0.073,0.059,0.128,0.121,0.215,0.177c3.138,2.044,5.273-2.472,5.273-2.472s1.917,5.21,5.785,3.47 C164.954,64.951,158.769,59.486,158.769,59.486z M139.704,40.778c-0.098-0.443-0.117-0.958-0.003-1.582 c0.793-4.339,5.595-2.105,5.595-2.105s-2.684-5.03,1.251-6.038c3.303-0.846,4.318,2.707,4.318,2.707s0.854-0.81,1.942-1.282 c-0.228-0.117-0.445-0.26-0.644-0.442c-2.998-2.74,12.106-6.985,12.106-6.985s-14.347,0.646-13.027-4.531 c1.32-5.177,12.937,1.258,12.937,1.258s-6.295-10.815-1.286-11.96c5.009-1.145,4.312,10.214,4.312,10.214s2.925-9.102,6.042-7.575 c3.116,1.527-2.196,9.989-2.196,9.989s8.035-2.892,8.608-0.387c0.573,2.504-9.81,4.352-9.81,4.352s9.467,3.369,7.9,6.89 c-0.118,0.265-0.291,0.459-0.488,0.621c3.753,2.021-0.879,12.713-0.879,12.713s10.155-7.312,11.78-2.437 c1.625,4.874-9.749,5.281-9.749,5.281s9.343,2.031,8.124,5.281c-1.219,3.25-10.155-1.219-10.155-1.219s3.656,7.718,1.219,8.53 c-2.437,0.812-5.281-9.342-5.281-9.342s-2.437,9.749-6.093,8.53c-3.656-1.219,1.625-10.967,1.625-10.967s-9.342,0-9.342-3.25 c0-3.25,9.749-2.031,9.749-2.031s-3.02-3.247-3.708-6.265c-0.478,0.577-1.037,0.926-1.697,0.862 c-3.234-0.314-1.078-9.899-1.078-9.899s-3.145,2.409-6.081,3.008c0.085,0.075,0.171,0.145,0.252,0.238 c1.93,2.203-0.937,5.314-0.937,5.314s4.646-0.906,4.675,3.343c0.023,3.275-4.764,3.224-4.764,3.224s0.881,3.571-2.082,4.918 c-3.708,1.686-5.24-2.449-5.24-2.449s-0.68,0.645-1.595,1.054c-0.057-0.329-0.11-0.639-0.158-0.936 c-0.008-0.048-0.015-0.094-0.023-0.142c-0.057-0.355-0.11-0.691-0.153-0.994c-0.001-0.005-0.001-0.01-0.002-0.015 c-0.043-0.299-0.077-0.566-0.106-0.81c-0.004-0.031-0.008-0.065-0.011-0.095c-0.026-0.228-0.044-0.425-0.056-0.598 c-0.002-0.032-0.004-0.064-0.006-0.094c-0.009-0.161-0.012-0.296-0.007-0.399c0.001-0.016,0.003-0.027,0.004-0.042 c0.008-0.097,0.022-0.171,0.046-0.198l-1.532-0.856c0.026-0.03,0.043-0.049,0.043-0.049s-0.05,0.003-0.121,0.006L139.704,40.778z M166.132,35.249c2.725,0.797,7.003,11.792,7.003,11.792s-1.458-10.215,1.315-12.83c-3.212-0.729-7.457-3.588-7.457-3.588 S166.765,32.958,166.132,35.249z M165.172,119.424c-0.695-2.473-8.579,0.81-8.579,0.81s4.89-8.713,1.703-10.085 c-3.188-1.373-5.663,7.862-5.663,7.862s0.138-11.38-4.809-9.99c-4.946,1.39,1.871,11.883,1.871,11.883s-4.721-2.317-8.486-2.731 c-0.795,1.655-1.6,3.364-2.414,5.139c0.09,0.037,0.186,0.07,0.279,0.104c0.125,0.046,0.251,0.091,0.382,0.132 c3.899,1.24,10.489,0.62,10.489,0.62s-7.106,2.38-10.463,4.705c-0.257,0.178-0.491,0.356-0.699,0.532 c-1.006,0.852-1.388,1.671-0.588,2.334c0.15,0.124,0.313,0.214,0.477,0.303c0.28,0.152,0.574,0.266,0.886,0.327 c3.312,0.647,8.124-3.429,8.124-3.429s-1.683,9.679,1.563,9.835c3.246,0.155,3.692-9.176,3.692-9.176s9.485,5.741,10.877,2.147 c1.392-3.593-8.229-6.494-8.229-6.494S165.867,121.897,165.172,119.424z M156.175,90.811c-0.538,0.009-0.982,0.115-1.354,0.288 c-0.016,0.29-0.025,0.574-0.048,0.869c0,0-0.628,1.004-1.694,2.812c0,0.974,0.163,1.745,0.163,1.745s-0.322-0.288-0.821-0.62 c-0.783,1.347-1.733,3.014-2.818,4.976c1.386,0.158,2.712,0,2.712,0s-6.089,3.536-2.951,5.58c3.138,2.044,5.273-2.472,5.273-2.472 s1.917,5.21,5.785,3.47s-2.317-7.205-2.317-7.205s6.945-1.19,5.82-3.5c-1.125-2.31-5.85-0.866-5.85-0.866 S159.719,90.752,156.175,90.811z M160.22,79.83c-0.03-4.249-4.675-3.343-4.675-3.343s2.867-3.11,0.937-5.314 c-1.674-1.911-4.266,0.099-4.924,0.666c0.12,0.409,0.241,0.816,0.361,1.221c0.108,0.365,0.217,0.734,0.324,1.096 c0.003,0.009,0.005,0.018,0.008,0.027c0.232,0.787,0.459,1.57,0.676,2.353c0.005,0.016,0.009,0.032,0.013,0.048 c0.217,0.78,0.424,1.56,0.617,2.345c0.003,0.013,0.006,0.026,0.01,0.04c0.616,2.51,1.086,5.072,1.255,7.838 c1.16-1.594,0.634-3.754,0.634-3.754S160.243,83.104,160.22,79.83z M153.621,151.517c0,0,3.099-2.615,0.387-4.455 c-3.34-2.266-3.39,3.39-3.39,3.39s-1.937-4.649-3.68-2.615c-1.743,2.034,1.259,3.971,1.259,3.971s-3.874,0.872-3.002,3.777 s5.327-0.968,5.327-0.968s0.194,5.036,1.937,4.455c1.743-0.581,1.162-4.068,1.162-4.068s3.486,1.646,3.777-0.872 C157.737,151.188,153.621,151.517,153.621,151.517z M173.657,134.716c0,0,3.099-2.615,0.387-4.455c-3.34-2.266-3.39,3.39-3.39,3.39 s-1.937-4.649-3.68-2.615c-1.743,2.034,1.259,3.971,1.259,3.971s-3.874,0.872-3.002,3.777c0.872,2.905,5.327-0.968,5.327-0.968 s0.194,5.036,1.937,4.455c1.743-0.581,1.162-4.068,1.162-4.068s3.486,1.646,3.777-0.872 C177.773,134.388,173.657,134.716,173.657,134.716z M199.272,7.371c0,0,0.194,5.036,1.937,4.455 c1.743-0.581,1.162-4.068,1.162-4.068s3.486,1.646,3.777-0.872c0.164-1.418-0.708-2.073-1.654-2.374 c-2.723-0.154-5.398-0.102-7.809-0.14c0.158,0.122,0.263,0.19,0.263,0.19s-3.874,0.872-3.002,3.777 C194.817,11.245,199.272,7.371,199.272,7.371z" fill="#ffffff"/></g><g id="change3_1"><path d="M148.918,299.431c2.498,52.042,6.586,142.66,10.543,172.193c-5.961-0.621-14.141-1.461-25.344-2.593 c-13.107-1.324-24.575,0.778-33.79,3.922c2.975-16.163,4.842-44.167,4.842-44.167S136.942,337,146.827,305.934 C147.471,303.908,148.173,301.729,148.918,299.431z M268.086,472.266c-4.38,1.596-8.533,3.647-13.016,4.985 c-4.61,1.376-9.308,2.339-14.11,2.713c-4.655,0.363-9.34,0.384-13.984-0.136c-4.785-0.536-9.684-1.325-14.225-2.95 c-0.103-0.037-0.177,0.134-0.075,0.178c4.493,1.959,8.952,3.745,13.784,4.664c4.853,0.923,9.823,1.361,14.759,1.097 c4.95-0.265,9.958-1.014,14.72-2.412c4.674-1.372,9.439-3.135,13.311-6.138C270.193,473.535,269.17,471.871,268.086,472.266z M206.438,469.774c-2.718-1.536-4.659-4.47-6.19-7.095c-2.292-3.93-4.077-8.196-5.658-12.453 c-4.406-11.857-7.308-24.275-10.034-36.605c-3.283-14.85-6.001-29.843-8.558-44.834c-2.55-14.948-4.825-29.945-7.036-44.947 c-1.779-12.072-3.665-24.114-5.671-36.15c-0.195-1.172-0.392-2.344-0.589-3.515c-0.036-0.215-0.406-0.168-0.384,0.052 c1.193,11.754,2.268,23.511,3.75,35.234c1.902,15.052,3.964,30.079,6.309,45.068c2.4,15.342,5.095,30.623,8.478,45.782 c2.864,12.832,6.154,25.644,10.839,37.947c1.723,4.524,3.61,9.034,6.125,13.181c1.764,2.908,3.826,5.84,6.575,7.902 c0.534,0.401,1.095,0.736,1.675,1.064C206.479,470.639,206.849,470.007,206.438,469.774z M233.683,370.864 c2.738,16.222,5.627,32.436,8.888,48.562c2.144,10.602,4.68,21.041,7.645,31.443c0.104,0.367,0.636,0.211,0.565-0.156 c-3.445-17.897-7.322-35.711-10.568-53.646c-2.833-15.655-4.682-31.459-7.183-47.164c-0.715-4.49-1.392-8.989-2.253-13.453 c-0.891-4.625-1.999-9.176-3.132-13.748c-0.058-0.236-0.45-0.193-0.432,0.058c0.61,8.233,1.485,16.358,2.662,24.53 C231.012,355.169,232.358,363.017,233.683,370.864z M175.816,172.636c5.863,9.981,11.956,19.816,18.209,29.557 c3.485,5.429,7.205,10.614,11.29,15.609c0.524,0.641,1.485-0.177,1.112-0.858c-5.518-10.076-12.046-19.498-18.234-29.165 c-6.135-9.584-12.115-19.262-18.195-28.88c-3.498-5.533-6.938-11.096-10.264-16.735c-0.256-0.434-0.915-0.048-0.675,0.394 C164.546,152.646,169.998,162.735,175.816,172.636z M215.998,203.373c-1.448-2.413-3.177-4.715-4.774-7.035 c-1.516-2.202-2.925-4.474-4.42-6.69c-3.156-4.68-6.086-9.52-8.988-14.36c-2.87-4.785-5.658-9.619-8.522-14.407 c-2.914-4.872-6.162-9.52-9.468-14.133c-0.413-0.576-1.355-0.061-0.97,0.567c3.005,4.908,5.6,10.046,8.374,15.086 c2.691,4.89,5.308,9.822,8.01,14.706c2.693,4.867,5.527,9.639,8.619,14.264c3.05,4.563,6.766,9.39,11.104,12.802 C215.511,204.604,216.414,204.067,215.998,203.373z M139.457,122.548c-0.131-0.042-0.258-0.086-0.382-0.132 c-0.106,1.997-0.202,3.994-0.29,5.99c0.208-0.176,0.442-0.354,0.699-0.532C139.459,126.099,139.454,124.324,139.457,122.548z M88.201,357.189c-1.593,4.467-3.518,8.836-5.187,13.278c-2.672,7.113-5.226,14.27-7.851,21.4 c-2.725,7.404-5.289,14.864-8.121,22.23c-1.997,5.196-3.929,10.54-6.552,15.462c-1.985,3.726-5.041,6.983-8.202,9.737 c-4.81,4.191-10.447,7.409-16.806,8.409c-0.406,0.064-0.313,0.747,0.097,0.72c10.712-0.728,20.132-7.329,26.153-16.001 c2.817-4.057,4.604-9.022,6.457-13.56c6.009-14.716,11.43-29.733,16.222-44.889c1.052-3.329,2.126-6.652,3.107-10.002 c0.626-2.139,1.157-4.346,1.906-6.446C89.7,356.755,88.474,356.423,88.201,357.189z M116.302,265.923 c2.786-12.452,5.706-24.825,8.964-37.164c3.278-12.411,6.737-24.785,9.659-37.288c1.535-6.567,2.843-13.186,3.976-19.833 c0.646,11.636,1.727,23.284,3.285,34.812c1.089,8.056,2.371,16.039,3.925,24.018c0.141,0.721,1.361,0.568,1.295-0.175 c-1.245-14.089-2.867-28.135-4.235-42.212c-1.358-13.973-2.16-27.972-3.002-41.981c-0.295-4.91-0.495-9.818-0.61-14.73 c-0.312-0.061-0.606-0.174-0.886-0.327c-0.444,11.133-0.575,22.254-0.139,33.407c0.082,2.094,0.209,4.19,0.321,6.286 c-6.559,24.74-14.342,49.179-19.663,74.234c-1.464,6.896-2.901,13.837-3.754,20.838 C115.379,266.299,116.195,266.402,116.302,265.923z" fill="#b91f23"/></g></svg>